<svg id="Logo" xmlns="http://www.w3.org/2000/svg" xmlns:xlink="http://www.w3.org/1999/xlink" viewBox="0 0 1417.32 1417.32"><defs><style>.cls-1{fill:none;}.cls-2{fill:#e60007;}.cls-3{clip-path:url(#clip-path);}.cls-4{fill:#fff;}</style><clipPath id="clip-path"><circle class="cls-1" cx="708.67" cy="705.86" r="686.78"/></clipPath></defs><title>rbtv-cornerbug</title><circle class="cls-2" cx="708.67" cy="705.86" r="686.78"/><g class="cls-3"><path d="M145,287.5l572.81,313S513.5,1130.5,17,722,145,287.5,145,287.5Z"/><path d="M1410,699,913,642.92s-76.33,518.41,425,390.41C1847.26,903.31,1410,699,1410,699Z"/><path class="cls-4" d="M67.33,434.42,616.19,688.59S396.42,1007.33,21.88,648,67.33,434.42,67.33,434.42Z"/><path class="cls-4" d="M1404,818.5,967,793.14S990,1109,1357.5,978.5,1404,818.5,1404,818.5Z"/><circle cx="1170.74" cy="813.83" r="81.5"/><circle cx="322.74" cy="592.83" r="81.5"/></g></svg>