<?xml version="1.0" encoding="UTF-8" standalone="no"?>
<svg
   id="Logo"
   viewBox="0 0 800 480"
   version="1.1"
   width="2560"
   height="1536"
   sodipodi:docname="App Icon.svg"
   inkscape:version="1.2.2 (b0a8486, 2022-12-01)"
   xmlns:inkscape="http://www.inkscape.org/namespaces/inkscape"
   xmlns:sodipodi="http://sodipodi.sourceforge.net/DTD/sodipodi-0.dtd"
   xmlns="http://www.w3.org/2000/svg"
   xmlns:svg="http://www.w3.org/2000/svg"
   xmlns:rdf="http://www.w3.org/1999/02/22-rdf-syntax-ns#"
   xmlns:cc="http://creativecommons.org/ns#"
   xmlns:dc="http://purl.org/dc/elements/1.1/">
  <sodipodi:namedview
     id="namedview19"
     pagecolor="#ffffff"
     bordercolor="#666666"
     borderopacity="1.0"
     inkscape:showpageshadow="2"
     inkscape:pageopacity="0.0"
     inkscape:pagecheckerboard="0"
     inkscape:deskcolor="#d1d1d1"
     showgrid="false"
     inkscape:zoom="0.49166667"
     inkscape:cx="1292.5424"
     inkscape:cy="605.08475"
     inkscape:window-width="1792"
     inkscape:window-height="997"
     inkscape:window-x="0"
     inkscape:window-y="25"
     inkscape:window-maximized="1"
     inkscape:current-layer="Logo" />
  <defs
     id="defs748">
    <style
       id="style743">.cls-1{fill:none;}.cls-2{fill:#e60007;}.cls-3{clip-path:url(#clip-path);}.cls-4{fill:#fff;}</style>
    <clipPath
       id="clip-path">
      <circle
         class="cls-1"
         cx="708.66998"
         cy="705.85999"
         r="686.78003"
         id="circle745" />
    </clipPath>
  </defs>
  <title
     id="title750">rbtv-cornerbug</title>
  <metadata
     id="metadata823">
    <rdf:RDF>
      <cc:Work
         rdf:about="">
        <dc:title>rbtv-cornerbug</dc:title>
      </cc:Work>
    </rdf:RDF>
  </metadata>
  <rect
     style="fill:#212529;fill-opacity:1;stroke-width:1.44542"
     id="rect1571"
     width="800"
     height="480"
     x="0"
     y="0" />
  <g
     id="g3033"
     transform="matrix(0.37850651,0,0,0.37850651,248.5974,-164.69854)">
    <circle
       class="cls-2"
       cx="400"
       cy="1069.1984"
       r="461.57031"
       id="circle752"
       style="stroke-width:0.672079" />
    <g
       class="cls-3"
       clip-path="url(#clip-path)"
       id="g766"
       transform="matrix(0.67207881,0,0,0.67207881,-76.282079,594.80484)">
      <path
         d="m 145,287.5 572.81,313 c 0,0 -204.31,530 -700.81,121.5 C -479.5,313.5 145,287.5 145,287.5 Z"
         id="path754" />
      <path
         d="M 1410,699 913,642.92 c 0,0 -76.33,518.41 425,390.41 C 1847.26,903.31 1410,699 1410,699 Z"
         id="path756" />
      <path
         class="cls-4"
         d="m 67.33,434.42 548.86,254.17 c 0,0 -219.77,318.74 -594.31,-40.59 C -352.66,288.67 67.33,434.42 67.33,434.42 Z"
         id="path758" />
      <path
         class="cls-4"
         d="M 1404,818.5 967,793.14 c 0,0 23,315.86 390.5,185.36 367.5,-130.5 46.5,-160 46.5,-160 z"
         id="path760" />
      <circle
         cx="1170.74"
         cy="813.83002"
         r="81.5"
         id="circle762" />
      <circle
         cx="322.73999"
         cy="592.83002"
         r="81.5"
         id="circle764" />
    </g>
  </g>
</svg>
