<?xml version="1.0" encoding="UTF-8" standalone="no"?>
<svg
   viewBox="0 0 1624 504"
   version="1.1"
   id="svg66"
   width="4640"
   height="1440"
   xmlns="http://www.w3.org/2000/svg"
   xmlns:svg="http://www.w3.org/2000/svg"
   xmlns:rdf="http://www.w3.org/1999/02/22-rdf-syntax-ns#"
   xmlns:cc="http://creativecommons.org/ns#"
   xmlns:dc="http://purl.org/dc/elements/1.1/">
  <defs
     id="defs41">
    <style
       id="style36">.cls-1{fill:none;}.cls-2{fill:#222;}.cls-3{opacity:0.05;}.cls-4{fill:#fff;}.cls-5{clip-path:url(#clip-path);}</style>
    <clipPath
       id="clip-path">
      <circle
         class="cls-1"
         cx="160"
         cy="90"
         r="54.860001"
         id="circle38" />
    </clipPath>
    <clipPath
       id="clip-path-2">
      <circle
         class="cls-1"
         cx="160"
         cy="90"
         r="54.860001"
         id="circle38-2" />
    </clipPath>
    <clipPath
       id="clip-path-3">
      <circle
         class="cls-1"
         cx="160"
         cy="90"
         r="54.860001"
         id="circle38-9" />
    </clipPath>
    <clipPath
       id="clip-path-7">
      <circle
         class="cls-1"
         cx="160"
         cy="90"
         r="54.860001"
         id="circle38-23" />
    </clipPath>
    <clipPath
       id="clip-path-6">
      <circle
         class="cls-1"
         cx="160"
         cy="90"
         r="54.860001"
         id="circle38-0" />
    </clipPath>
  </defs>
  <title
     id="title43">placeholder_16x9</title>
  <g
     id="Ebene_2"
     data-name="Ebene 2"
     transform="matrix(2.7970164,0,0,2.7922438,0.89850818,0.89612186)">
    <rect
       class="cls-2"
       x="-0.5"
       y="-0.5"
       width="580.61871"
       height="180.5"
       id="rect45"
       style="stroke-width:1.34596" />
    <g
       class="cls-3"
       id="g63"
       transform="translate(129.80936)">
      <circle
         class="cls-4"
         cx="160"
         cy="90"
         r="54.860001"
         id="circle47" />
      <g
         class="cls-5"
         clip-path="url(#clip-path)"
         id="g61">
        <path
           d="m 115,56.58 45.76,25 c 0,0 -16.32,42.34 -56,9.71 C 65.08,58.66 115,56.58 115,56.58 Z"
           id="path49" />
        <path
           d="M 216,89.45 176.32,85 c 0,0 -6.1,41.41 34,31.19 C 251,105.77 216,89.45 216,89.45 Z"
           id="path51" />
        <path
           class="cls-4"
           d="m 108.77,68.32 43.84,20.3 c 0,0 -17.55,25.46 -47.47,-3.24 -29.92,-28.7 3.63,-17.06 3.63,-17.06 z"
           id="path53" />
        <path
           class="cls-4"
           d="m 215.54,99 -34.9,-2 c 0,0 1.83,25.23 31.19,14.81 C 241.19,101.39 215.54,99 215.54,99 Z"
           id="path55" />
        <circle
           cx="196.91"
           cy="98.620003"
           r="6.5100002"
           id="circle57" />
        <circle
           cx="129.17"
           cy="80.970001"
           r="6.5100002"
           id="circle59" />
      </g>
    </g>
  </g>
  <metadata
     id="metadata174">
    <rdf:RDF>
      <cc:Work
         rdf:about="">
        <dc:title>placeholder_16x9</dc:title>
      </cc:Work>
    </rdf:RDF>
  </metadata>
</svg>
